<svg width="208" height="72" viewBox="0 0 208 72" fill="none" xmlns="http://www.w3.org/2000/svg">
<path d="M57.3468 47.1489C55.1177 51.2922 51.2401 57.1922 47.1168 59.4789C42.9935 61.7657 38.2917 62.8292 33.5626 62.5448C28.8335 62.2603 24.2731 60.6397 20.4161 57.873C16.5591 55.1062 13.5652 51.308 11.7855 46.9235C10.0058 42.539 9.51402 37.75 10.3678 33.1179C11.2216 28.4858 13.3856 24.2026 16.606 20.7704C19.8265 17.3382 23.97 14.8992 28.5508 13.7394C33.1316 12.5797 36.591 14.2054 41.1007 15.6804C37.0823 14.3661 33.3206 15.3253 29.2389 16.3587C25.1571 17.3922 21.465 19.5655 18.5953 22.6238C15.7257 25.6821 13.7975 29.4987 13.0367 33.6262C12.2759 37.7537 12.7141 42.021 14.2999 45.9279C15.8858 49.8347 18.5535 53.2192 21.9904 55.6846C25.4272 58.1499 29.4908 59.5939 33.7047 59.8474C37.9186 60.1008 42.1083 59.1532 45.7824 57.1155C49.4566 55.0779 55.3606 50.8409 57.3468 47.1489Z" fill="#1E1814"/>
<path d="M6.52596 44.2579C5.56062 40.2938 3.80923 33.2211 4.53241 29.2011C5.25559 25.1812 6.81126 21.351 9.1011 17.9527C11.3909 14.5543 14.3652 11.6617 17.8358 9.4576C21.3065 7.25349 25.1981 5.78582 29.2648 5.14734C33.3315 4.50886 37.4847 4.71345 41.4622 5.74818C45.4396 6.78292 49.1547 8.62529 52.3727 11.1589C55.5907 13.6925 58.2416 16.8622 60.158 20.4677C62.0743 24.0733 61.2468 30.2999 61.5386 34.3699C61.2786 30.7433 58.9969 25.1866 57.2894 21.9738C55.5818 18.761 53.2197 15.9366 50.3522 13.679C47.4848 11.4214 44.1744 9.77976 40.6302 8.85775C37.0861 7.93573 33.3852 7.75343 29.7616 8.32236C26.1379 8.89129 22.6702 10.1991 19.5776 12.1631C16.4851 14.1271 13.8348 16.7046 11.7944 19.7327C9.75404 22.7609 8.36784 26.1738 7.72344 29.7558C7.07904 33.3379 5.66578 40.7256 6.52596 44.2579Z" fill="#F74D4D"/>
<rect width="5" height="11" transform="translate(24 35)" fill="#130D3A"/>
<rect width="6" height="17" transform="translate(32 29)" fill="#130D3A"/>
<rect width="5" height="23" transform="translate(40 23)" fill="#130D3A"/>
<path d="M37.8698 38.8526L38.2633 39.772L37.8698 38.8526ZM51.7293 30.0585C51.7616 29.5072 51.3408 29.0341 50.7894 29.0018L41.8048 28.476C41.2534 28.4437 40.7803 28.8645 40.7481 29.4159C40.7158 29.9672 41.1366 30.4403 41.6879 30.4726L49.6743 30.94L49.2069 38.9263C49.1746 39.4776 49.5954 39.9507 50.1468 39.983C50.6981 40.0153 51.1712 39.5945 51.2035 39.0431L51.7293 30.0585ZM21 42.0261C21.05 43.0249 21.0501 43.0249 21.0503 43.0249C21.0504 43.0249 21.0506 43.0248 21.0509 43.0248C21.0513 43.0248 21.052 43.0248 21.0528 43.0247C21.0543 43.0247 21.0566 43.0245 21.0595 43.0244C21.0652 43.0241 21.0735 43.0237 21.0843 43.0231C21.1059 43.0219 21.1376 43.0202 21.1788 43.0178C21.2612 43.0131 21.3818 43.0059 21.5369 42.9958C21.8471 42.9757 22.2954 42.944 22.8521 42.8978C23.9648 42.8053 25.513 42.6542 27.2571 42.4196C30.7193 41.9539 35.0502 41.1472 38.2633 39.772L37.8698 38.8526L37.4763 37.9333C34.5265 39.1958 30.4226 39.9758 26.9905 40.4374C25.2875 40.6665 23.7738 40.8142 22.6864 40.9046C22.143 40.9498 21.7067 40.9806 21.4072 41.0001C21.2576 41.0098 21.1421 41.0167 21.0647 41.0211C21.0259 41.0233 20.9967 41.0249 20.9774 41.0259C20.9678 41.0265 20.9607 41.0268 20.9561 41.0271C20.9538 41.0272 20.9521 41.0273 20.9511 41.0273C20.9506 41.0273 20.9502 41.0274 20.9501 41.0274C20.95 41.0274 20.95 41.0274 20.9499 41.0274C20.9499 41.0274 20.95 41.0274 21 42.0261ZM37.8698 38.8526L38.2633 39.772C41.1855 38.5213 44.4822 36.2443 47.008 34.3225C48.2803 33.3545 49.3748 32.4628 50.1515 31.8128C50.54 31.4877 50.8495 31.2227 51.0626 31.0383C51.1692 30.9461 51.2516 30.874 51.3079 30.8247C51.336 30.8 51.3575 30.781 51.3722 30.768C51.3796 30.7615 51.3852 30.7565 51.3891 30.753C51.3911 30.7513 51.3926 30.75 51.3937 30.749C51.3942 30.7485 51.3946 30.7481 51.395 30.7479C51.3951 30.7477 51.3953 30.7476 51.3954 30.7475C51.3955 30.7474 51.3956 30.7473 50.731 30.0001C50.0664 29.2529 50.0665 29.2528 50.0665 29.2528C50.0664 29.2529 50.0664 29.2529 50.0664 29.2529C50.0662 29.253 50.066 29.2532 50.0657 29.2535C50.065 29.2542 50.0639 29.2551 50.0623 29.2565C50.0592 29.2593 50.0543 29.2636 50.0478 29.2694C50.0347 29.2809 50.0148 29.2985 49.9884 29.3216C49.9356 29.368 49.8567 29.4369 49.7539 29.5259C49.5483 29.7038 49.2472 29.9616 48.868 30.279C48.1091 30.9141 47.0392 31.7857 45.797 32.7308C43.2936 34.6356 40.1597 36.7848 37.4763 37.9333L37.8698 38.8526Z" fill="#F74D4D"/>
<path d="M84.144 43.7422C83.984 43.7422 83.848 43.6862 83.736 43.5742C83.624 43.4622 83.568 43.3262 83.568 43.1662V29.8942H79.128C78.968 29.8942 78.832 29.8382 78.72 29.7262C78.608 29.6142 78.552 29.4782 78.552 29.3182V27.5422C78.552 27.3662 78.608 27.2222 78.72 27.1102C78.832 26.9982 78.968 26.9422 79.128 26.9422H91.368C91.544 26.9422 91.688 26.9982 91.8 27.1102C91.912 27.2222 91.968 27.3662 91.968 27.5422V29.3182C91.968 29.4782 91.912 29.6142 91.8 29.7262C91.688 29.8382 91.544 29.8942 91.368 29.8942H86.952V43.1662C86.952 43.3262 86.896 43.4622 86.784 43.5742C86.672 43.6862 86.528 43.7422 86.352 43.7422H84.144ZM92.9641 43.7422C92.8041 43.7422 92.6681 43.6862 92.5561 43.5742C92.4441 43.4622 92.3881 43.3262 92.3881 43.1662V31.8622C92.3881 31.6862 92.4441 31.5422 92.5561 31.4302C92.6681 31.3182 92.8041 31.2622 92.9641 31.2622H94.9081C95.0681 31.2622 95.2041 31.3182 95.3161 31.4302C95.4441 31.5422 95.5081 31.6862 95.5081 31.8622V32.8462C95.8761 32.3342 96.3481 31.9422 96.9241 31.6702C97.5161 31.3982 98.1961 31.2622 98.9641 31.2622H99.9481C100.124 31.2622 100.26 31.3182 100.356 31.4302C100.468 31.5422 100.524 31.6782 100.524 31.8382V33.5662C100.524 33.7262 100.468 33.8622 100.356 33.9742C100.26 34.0862 100.124 34.1422 99.9481 34.1422H98.0761C97.3081 34.1422 96.7081 34.3582 96.2761 34.7902C95.8601 35.2222 95.6521 35.8142 95.6521 36.5662V43.1662C95.6521 43.3262 95.5961 43.4622 95.4841 43.5742C95.3721 43.6862 95.2281 43.7422 95.0521 43.7422H92.9641ZM105.699 43.9822C104.867 43.9822 104.115 43.8222 103.443 43.5022C102.771 43.1662 102.235 42.7262 101.835 42.1822C101.451 41.6222 101.259 40.9982 101.259 40.3102C101.259 39.1902 101.707 38.3022 102.603 37.6462C103.515 36.9742 104.715 36.5262 106.203 36.3022L109.491 35.8222V35.3182C109.491 34.6462 109.323 34.1262 108.987 33.7582C108.651 33.3902 108.075 33.2062 107.259 33.2062C106.683 33.2062 106.211 33.3262 105.843 33.5662C105.491 33.7902 105.227 34.0942 105.051 34.4782C104.923 34.6862 104.739 34.7902 104.499 34.7902H102.603C102.427 34.7902 102.291 34.7422 102.195 34.6462C102.115 34.5502 102.075 34.4222 102.075 34.2622C102.091 34.0062 102.195 33.6942 102.387 33.3262C102.579 32.9582 102.883 32.6062 103.299 32.2702C103.715 31.9182 104.251 31.6222 104.907 31.3822C105.563 31.1422 106.355 31.0222 107.283 31.0222C108.291 31.0222 109.139 31.1502 109.827 31.4062C110.531 31.6462 111.091 31.9742 111.507 32.3902C111.923 32.8062 112.227 33.2942 112.419 33.8542C112.611 34.4142 112.707 35.0062 112.707 35.6302V43.1662C112.707 43.3262 112.651 43.4622 112.539 43.5742C112.427 43.6862 112.291 43.7422 112.131 43.7422H110.187C110.011 43.7422 109.867 43.6862 109.755 43.5742C109.659 43.4622 109.611 43.3262 109.611 43.1662V42.2302C109.403 42.5342 109.123 42.8222 108.771 43.0942C108.419 43.3502 107.987 43.5662 107.475 43.7422C106.979 43.9022 106.387 43.9822 105.699 43.9822ZM106.515 41.7022C107.075 41.7022 107.579 41.5822 108.027 41.3422C108.491 41.1022 108.851 40.7342 109.107 40.2382C109.379 39.7262 109.515 39.0862 109.515 38.3182V37.8142L107.115 38.1982C106.171 38.3422 105.467 38.5742 105.003 38.8942C104.539 39.2142 104.307 39.6062 104.307 40.0702C104.307 40.4222 104.411 40.7262 104.619 40.9822C104.843 41.2222 105.123 41.4062 105.459 41.5342C105.795 41.6462 106.147 41.7022 106.515 41.7022ZM120.285 43.9822C119.453 43.9822 118.717 43.8462 118.077 43.5742C117.453 43.2862 116.933 42.8862 116.517 42.3742C116.101 41.8622 115.781 41.2622 115.557 40.5742C115.333 39.8702 115.205 39.1022 115.173 38.2702C115.157 37.9822 115.149 37.7262 115.149 37.5022C115.149 37.2622 115.157 36.9982 115.173 36.7102C115.205 35.9102 115.325 35.1662 115.533 34.4782C115.757 33.7902 116.077 33.1902 116.493 32.6782C116.925 32.1502 117.453 31.7422 118.077 31.4542C118.717 31.1662 119.453 31.0222 120.285 31.0222C121.149 31.0222 121.877 31.1742 122.469 31.4782C123.077 31.7662 123.581 32.1422 123.981 32.6062V27.2782C123.981 27.1182 124.029 26.9822 124.125 26.8702C124.237 26.7582 124.381 26.7022 124.557 26.7022H126.597C126.757 26.7022 126.893 26.7582 127.005 26.8702C127.117 26.9822 127.173 27.1182 127.173 27.2782V43.1662C127.173 43.3262 127.117 43.4622 127.005 43.5742C126.893 43.6862 126.757 43.7422 126.597 43.7422H124.701C124.525 43.7422 124.381 43.6862 124.269 43.5742C124.173 43.4622 124.125 43.3262 124.125 43.1662V42.2782C123.725 42.7742 123.213 43.1822 122.589 43.5022C121.981 43.8222 121.213 43.9822 120.285 43.9822ZM121.173 41.4142C121.845 41.4142 122.381 41.2622 122.781 40.9582C123.181 40.6542 123.477 40.2702 123.669 39.8062C123.861 39.3262 123.965 38.8382 123.981 38.3422C123.997 38.0542 124.005 37.7502 124.005 37.4302C124.005 37.0942 123.997 36.7822 123.981 36.4942C123.965 36.0142 123.853 35.5582 123.645 35.1262C123.437 34.6782 123.133 34.3102 122.733 34.0222C122.333 33.7342 121.813 33.5902 121.173 33.5902C120.501 33.5902 119.965 33.7422 119.565 34.0462C119.181 34.3342 118.901 34.7182 118.725 35.1982C118.549 35.6782 118.445 36.2062 118.413 36.7822C118.397 37.2622 118.397 37.7422 118.413 38.2222C118.445 38.7982 118.549 39.3262 118.725 39.8062C118.901 40.2862 119.181 40.6782 119.565 40.9822C119.965 41.2702 120.501 41.4142 121.173 41.4142ZM135.614 43.9822C133.838 43.9822 132.43 43.4702 131.39 42.4462C130.35 41.4222 129.79 39.9662 129.71 38.0782C129.694 37.9182 129.686 37.7182 129.686 37.4782C129.686 37.2222 129.694 37.0222 129.71 36.8782C129.774 35.6782 130.046 34.6382 130.526 33.7582C131.022 32.8782 131.702 32.2062 132.566 31.7422C133.43 31.2622 134.446 31.0222 135.614 31.0222C136.91 31.0222 137.998 31.2942 138.878 31.8382C139.758 32.3662 140.422 33.1102 140.87 34.0702C141.318 35.0142 141.542 36.1102 141.542 37.3582V37.8622C141.542 38.0222 141.486 38.1582 141.374 38.2702C141.262 38.3822 141.118 38.4382 140.942 38.4382H132.974C132.974 38.4382 132.974 38.4622 132.974 38.5102C132.974 38.5582 132.974 38.5982 132.974 38.6302C132.99 39.1902 133.094 39.7102 133.286 40.1902C133.494 40.6542 133.79 41.0302 134.174 41.3182C134.574 41.6062 135.046 41.7502 135.59 41.7502C136.038 41.7502 136.414 41.6862 136.718 41.5582C137.022 41.4142 137.27 41.2542 137.462 41.0782C137.654 40.9022 137.79 40.7582 137.87 40.6462C138.014 40.4542 138.126 40.3422 138.206 40.3102C138.302 40.2622 138.438 40.2382 138.614 40.2382H140.678C140.838 40.2382 140.966 40.2862 141.062 40.3822C141.174 40.4782 141.222 40.5982 141.206 40.7422C141.19 40.9982 141.054 41.3102 140.798 41.6782C140.558 42.0462 140.206 42.4062 139.742 42.7582C139.278 43.1102 138.694 43.4062 137.99 43.6462C137.302 43.8702 136.51 43.9822 135.614 43.9822ZM132.974 36.4222H138.278V36.3502C138.278 35.7262 138.174 35.1822 137.966 34.7182C137.758 34.2542 137.454 33.8862 137.054 33.6142C136.654 33.3422 136.174 33.2062 135.614 33.2062C135.054 33.2062 134.574 33.3422 134.174 33.6142C133.774 33.8862 133.47 34.2542 133.262 34.7182C133.07 35.1822 132.974 35.7262 132.974 36.3502V36.4222ZM144.532 43.7422C144.372 43.7422 144.236 43.6862 144.124 43.5742C144.012 43.4622 143.956 43.3262 143.956 43.1662V31.8622C143.956 31.6862 144.012 31.5422 144.124 31.4302C144.236 31.3182 144.372 31.2622 144.532 31.2622H146.476C146.636 31.2622 146.772 31.3182 146.884 31.4302C147.012 31.5422 147.076 31.6862 147.076 31.8622V32.8462C147.444 32.3342 147.916 31.9422 148.492 31.6702C149.084 31.3982 149.764 31.2622 150.532 31.2622H151.516C151.692 31.2622 151.828 31.3182 151.924 31.4302C152.036 31.5422 152.092 31.6782 152.092 31.8382V33.5662C152.092 33.7262 152.036 33.8622 151.924 33.9742C151.828 34.0862 151.692 34.1422 151.516 34.1422H149.644C148.876 34.1422 148.276 34.3582 147.844 34.7902C147.428 35.2222 147.22 35.8142 147.22 36.5662V43.1662C147.22 43.3262 147.164 43.4622 147.052 43.5742C146.94 43.6862 146.796 43.7422 146.62 43.7422H144.532ZM158.559 43.9822C157.599 43.9822 156.775 43.8702 156.087 43.6462C155.415 43.4222 154.863 43.1422 154.431 42.8062C153.999 42.4702 153.679 42.1342 153.471 41.7982C153.263 41.4622 153.151 41.1822 153.135 40.9582C153.119 40.7822 153.167 40.6462 153.279 40.5502C153.407 40.4382 153.543 40.3822 153.687 40.3822H155.583C155.647 40.3822 155.703 40.3902 155.751 40.4062C155.799 40.4222 155.863 40.4702 155.943 40.5502C156.151 40.7262 156.367 40.9102 156.591 41.1022C156.831 41.2942 157.111 41.4622 157.431 41.6062C157.751 41.7342 158.151 41.7982 158.631 41.7982C159.255 41.7982 159.775 41.6782 160.191 41.4382C160.623 41.1822 160.839 40.8222 160.839 40.3582C160.839 40.0222 160.743 39.7502 160.551 39.5422C160.375 39.3342 160.039 39.1502 159.543 38.9902C159.047 38.8142 158.343 38.6302 157.431 38.4382C156.535 38.2302 155.791 37.9662 155.199 37.6462C154.607 37.3262 154.167 36.9262 153.879 36.4462C153.591 35.9662 153.447 35.4062 153.447 34.7662C153.447 34.1422 153.631 33.5502 153.999 32.9902C154.383 32.4142 154.943 31.9422 155.679 31.5742C156.431 31.2062 157.359 31.0222 158.463 31.0222C159.327 31.0222 160.079 31.1342 160.719 31.3582C161.359 31.5662 161.887 31.8302 162.303 32.1502C162.735 32.4702 163.063 32.7982 163.287 33.1342C163.511 33.4542 163.631 33.7342 163.647 33.9742C163.663 34.1502 163.615 34.2942 163.503 34.4062C163.391 34.5022 163.263 34.5502 163.119 34.5502H161.343C161.263 34.5502 161.191 34.5342 161.127 34.5022C161.063 34.4702 160.999 34.4302 160.935 34.3822C160.759 34.2222 160.567 34.0542 160.359 33.8782C160.151 33.7022 159.895 33.5502 159.591 33.4222C159.303 33.2782 158.919 33.2062 158.439 33.2062C157.831 33.2062 157.367 33.3422 157.047 33.6142C156.727 33.8702 156.567 34.1982 156.567 34.5982C156.567 34.8702 156.639 35.1102 156.783 35.3182C156.943 35.5102 157.255 35.6942 157.719 35.8702C158.183 36.0462 158.887 36.2302 159.831 36.4222C160.903 36.6142 161.751 36.9022 162.375 37.2862C163.015 37.6542 163.463 38.0862 163.719 38.5822C163.991 39.0622 164.127 39.5982 164.127 40.1902C164.127 40.9102 163.911 41.5582 163.479 42.1342C163.063 42.7102 162.439 43.1662 161.607 43.5022C160.791 43.8222 159.775 43.9822 158.559 43.9822ZM167.335 43.7422C167.175 43.7422 167.039 43.6862 166.927 43.5742C166.815 43.4622 166.759 43.3262 166.759 43.1662V27.5422C166.759 27.3662 166.815 27.2222 166.927 27.1102C167.039 26.9982 167.175 26.9422 167.335 26.9422H173.767C175.015 26.9422 176.103 27.1422 177.031 27.5422C177.959 27.9262 178.679 28.5182 179.191 29.3182C179.703 30.1022 179.959 31.0862 179.959 32.2702C179.959 33.4702 179.703 34.4622 179.191 35.2462C178.679 36.0142 177.959 36.5902 177.031 36.9742C176.103 37.3582 175.015 37.5502 173.767 37.5502H170.191V43.1662C170.191 43.3262 170.135 43.4622 170.023 43.5742C169.927 43.6862 169.791 43.7422 169.615 43.7422H167.335ZM170.143 34.8862H173.647C174.575 34.8862 175.287 34.6702 175.783 34.2382C176.279 33.7902 176.527 33.1342 176.527 32.2702C176.527 31.4702 176.295 30.8302 175.831 30.3502C175.367 29.8542 174.639 29.6062 173.647 29.6062H170.143V34.8862ZM185.524 43.9822C184.692 43.9822 183.94 43.8222 183.268 43.5022C182.596 43.1662 182.06 42.7262 181.66 42.1822C181.276 41.6222 181.084 40.9982 181.084 40.3102C181.084 39.1902 181.532 38.3022 182.428 37.6462C183.34 36.9742 184.54 36.5262 186.028 36.3022L189.316 35.8222V35.3182C189.316 34.6462 189.148 34.1262 188.812 33.7582C188.476 33.3902 187.9 33.2062 187.084 33.2062C186.508 33.2062 186.036 33.3262 185.668 33.5662C185.316 33.7902 185.052 34.0942 184.876 34.4782C184.748 34.6862 184.564 34.7902 184.324 34.7902H182.428C182.252 34.7902 182.116 34.7422 182.02 34.6462C181.94 34.5502 181.9 34.4222 181.9 34.2622C181.916 34.0062 182.02 33.6942 182.212 33.3262C182.404 32.9582 182.708 32.6062 183.124 32.2702C183.54 31.9182 184.076 31.6222 184.732 31.3822C185.388 31.1422 186.18 31.0222 187.108 31.0222C188.116 31.0222 188.964 31.1502 189.652 31.4062C190.356 31.6462 190.916 31.9742 191.332 32.3902C191.748 32.8062 192.052 33.2942 192.244 33.8542C192.436 34.4142 192.532 35.0062 192.532 35.6302V43.1662C192.532 43.3262 192.476 43.4622 192.364 43.5742C192.252 43.6862 192.116 43.7422 191.956 43.7422H190.012C189.836 43.7422 189.692 43.6862 189.58 43.5742C189.484 43.4622 189.436 43.3262 189.436 43.1662V42.2302C189.228 42.5342 188.948 42.8222 188.596 43.0942C188.244 43.3502 187.812 43.5662 187.3 43.7422C186.804 43.9022 186.212 43.9822 185.524 43.9822ZM186.34 41.7022C186.9 41.7022 187.404 41.5822 187.852 41.3422C188.316 41.1022 188.676 40.7342 188.932 40.2382C189.204 39.7262 189.34 39.0862 189.34 38.3182V37.8142L186.94 38.1982C185.996 38.3422 185.292 38.5742 184.828 38.8942C184.364 39.2142 184.132 39.6062 184.132 40.0702C184.132 40.4222 184.236 40.7262 184.444 40.9822C184.668 41.2222 184.948 41.4062 185.284 41.5342C185.62 41.6462 185.972 41.7022 186.34 41.7022ZM197.406 48.3022C197.278 48.3022 197.166 48.2542 197.07 48.1582C196.974 48.0622 196.926 47.9502 196.926 47.8222C196.926 47.7582 196.926 47.6942 196.926 47.6302C196.942 47.5822 196.974 47.5182 197.022 47.4382L198.894 42.9982L194.286 32.1262C194.222 31.9662 194.19 31.8542 194.19 31.7902C194.206 31.6462 194.262 31.5262 194.358 31.4302C194.454 31.3182 194.574 31.2622 194.718 31.2622H196.662C196.854 31.2622 196.998 31.3102 197.094 31.4062C197.19 31.5022 197.262 31.6062 197.31 31.7182L200.502 39.5662L203.79 31.7182C203.838 31.5902 203.91 31.4862 204.006 31.4062C204.102 31.3102 204.246 31.2622 204.438 31.2622H206.358C206.486 31.2622 206.598 31.3102 206.694 31.4062C206.806 31.5022 206.862 31.6142 206.862 31.7422C206.862 31.8382 206.83 31.9662 206.766 32.1262L199.974 47.8462C199.91 47.9742 199.83 48.0782 199.734 48.1582C199.638 48.2542 199.494 48.3022 199.302 48.3022H197.406Z" fill="#130D3A"/>
</svg>
