<svg width="1600" height="797" viewBox="0 0 1600 797" fill="none" xmlns="http://www.w3.org/2000/svg">
<rect y="-45" width="1600" height="751" fill="url(#paint0_linear_1_229)"/>
<mask id="mask0_1_229" style="mask-type:luminance" maskUnits="userSpaceOnUse" x="0" y="-156" width="1600" height="953">
<rect y="-156" width="1600" height="953" fill="white"/>
</mask>
<g mask="url(#mask0_1_229)">
<path fill-rule="evenodd" clip-rule="evenodd" d="M1225 156C1225.79 156 1226.56 155.681 1227.12 155.121C1227.68 154.563 1228 153.79 1228 153C1228 152.21 1227.68 151.437 1227.12 150.879C1226.56 150.32 1225.79 150 1225 150C1224.21 150 1223.44 150.32 1222.88 150.879C1222.32 151.437 1222 152.21 1222 153C1222 153.79 1222.32 154.563 1222.88 155.121C1223.44 155.681 1224.21 156 1225 156Z" fill="#130D3A"/>
<path fill-rule="evenodd" clip-rule="evenodd" d="M1257.99 156H1258.01C1259.66 156 1261 154.656 1261 153C1261 151.344 1259.66 150 1258.01 150H1257.99C1256.34 150 1255 151.344 1255 153C1255 154.656 1256.34 156 1257.99 156Z" fill="#130D3A"/>
<path fill-rule="evenodd" clip-rule="evenodd" d="M1241.99 156H1242.01C1243.66 156 1245 154.656 1245 153C1245 151.344 1243.66 150 1242.01 150H1241.99C1240.34 150 1239 151.344 1239 153C1239 154.656 1240.34 156 1241.99 156Z" fill="#130D3A"/>
<path fill-rule="evenodd" clip-rule="evenodd" d="M1275 156C1275.79 156 1276.56 155.681 1277.12 155.121C1277.68 154.563 1278 153.79 1278 153C1278 152.21 1277.68 151.437 1277.12 150.879C1276.56 150.32 1275.79 150 1275 150C1274.21 150 1273.44 150.32 1272.88 150.879C1272.32 151.437 1272 152.21 1272 153C1272 153.79 1272.32 154.563 1272.88 155.121C1273.44 155.681 1274.21 156 1275 156Z" fill="#130D3A"/>
<path fill-rule="evenodd" clip-rule="evenodd" d="M1292 156C1292.79 156 1293.56 155.681 1294.12 155.121C1294.68 154.563 1295 153.79 1295 153C1295 152.21 1294.68 151.437 1294.12 150.879C1293.56 150.32 1292.79 150 1292 150C1291.21 150 1290.44 150.32 1289.88 150.879C1289.32 151.437 1289 152.21 1289 153C1289 153.79 1289.32 154.563 1289.88 155.121C1290.44 155.681 1291.21 156 1292 156Z" fill="#130D3A"/>
<path fill-rule="evenodd" clip-rule="evenodd" d="M1324.99 156H1325.01C1326.66 156 1328 154.656 1328 153C1328 151.344 1326.66 150 1325.01 150H1324.99C1323.34 150 1322 151.344 1322 153C1322 154.656 1323.34 156 1324.99 156Z" fill="#130D3A"/>
<path fill-rule="evenodd" clip-rule="evenodd" d="M1307.99 156H1308.01C1309.66 156 1311 154.656 1311 153C1311 151.344 1309.66 150 1308.01 150H1307.99C1306.34 150 1305 151.344 1305 153C1305 154.656 1306.34 156 1307.99 156Z" fill="#130D3A"/>
<mask id="mask1_1_229" style="mask-type:luminance" maskUnits="userSpaceOnUse" x="1338" y="149" width="7" height="8">
<path fill-rule="evenodd" clip-rule="evenodd" d="M1338.3 149.788H1344.7V156.188H1338.3V149.788Z" fill="white"/>
</mask>
<g mask="url(#mask1_1_229)">
<path fill-rule="evenodd" clip-rule="evenodd" d="M1341.5 156.188C1342.34 156.188 1343.17 155.847 1343.77 155.25C1344.36 154.655 1344.7 153.831 1344.7 152.988C1344.7 152.145 1344.36 151.321 1343.77 150.725C1343.17 150.129 1342.34 149.788 1341.5 149.788C1340.66 149.788 1339.84 150.129 1339.24 150.725C1338.64 151.321 1338.3 152.145 1338.3 152.988C1338.3 153.831 1338.64 154.655 1339.24 155.25C1339.84 155.847 1340.66 156.188 1341.5 156.188Z" fill="#130D3A"/>
</g>
<path fill-rule="evenodd" clip-rule="evenodd" d="M1225 143C1225.79 143 1226.56 142.681 1227.12 142.121C1227.68 141.563 1228 140.789 1228 140C1228 139.21 1227.68 138.437 1227.12 137.877C1226.56 137.319 1225.79 137 1225 137C1224.21 137 1223.44 137.319 1222.88 137.877C1222.32 138.437 1222 139.21 1222 140C1222 140.789 1222.32 141.563 1222.88 142.121C1223.44 142.681 1224.21 143 1225 143Z" fill="#130D3A"/>
<path fill-rule="evenodd" clip-rule="evenodd" d="M1257.99 143H1258.01C1259.66 143 1261 141.656 1261 140C1261 138.344 1259.66 137 1258.01 137H1257.99C1256.34 137 1255 138.344 1255 140C1255 141.656 1256.34 143 1257.99 143Z" fill="#130D3A"/>
<path fill-rule="evenodd" clip-rule="evenodd" d="M1241.99 143H1242.01C1243.66 143 1245 141.656 1245 140C1245 138.344 1243.66 137 1242.01 137H1241.99C1240.34 137 1239 138.344 1239 140C1239 141.656 1240.34 143 1241.99 143Z" fill="#130D3A"/>
<path fill-rule="evenodd" clip-rule="evenodd" d="M1275 143C1275.79 143 1276.56 142.681 1277.12 142.121C1277.68 141.563 1278 140.789 1278 140C1278 139.21 1277.68 138.437 1277.12 137.877C1276.56 137.319 1275.79 137 1275 137C1274.21 137 1273.44 137.319 1272.88 137.877C1272.32 138.437 1272 139.21 1272 140C1272 140.789 1272.32 141.563 1272.88 142.121C1273.44 142.681 1274.21 143 1275 143Z" fill="#130D3A"/>
<path fill-rule="evenodd" clip-rule="evenodd" d="M1292 143C1292.79 143 1293.56 142.681 1294.12 142.121C1294.68 141.563 1295 140.789 1295 140C1295 139.21 1294.68 138.437 1294.12 137.877C1293.56 137.319 1292.79 137 1292 137C1291.21 137 1290.44 137.319 1289.88 137.877C1289.32 138.437 1289 139.21 1289 140C1289 140.789 1289.32 141.563 1289.88 142.121C1290.44 142.681 1291.21 143 1292 143Z" fill="#130D3A"/>
<path fill-rule="evenodd" clip-rule="evenodd" d="M1324.99 143H1325.01C1326.66 143 1328 141.656 1328 140C1328 138.344 1326.66 137 1325.01 137H1324.99C1323.34 137 1322 138.344 1322 140C1322 141.656 1323.34 143 1324.99 143Z" fill="#130D3A"/>
<path fill-rule="evenodd" clip-rule="evenodd" d="M1307.99 143H1308.01C1309.66 143 1311 141.656 1311 140C1311 138.344 1309.66 137 1308.01 137H1307.99C1306.34 137 1305 138.344 1305 140C1305 141.656 1306.34 143 1307.99 143Z" fill="#130D3A"/>
<mask id="mask2_1_229" style="mask-type:luminance" maskUnits="userSpaceOnUse" x="1338" y="136" width="7" height="7">
<path fill-rule="evenodd" clip-rule="evenodd" d="M1338.3 136.443H1344.7V142.843H1338.3V136.443Z" fill="white"/>
</mask>
<g mask="url(#mask2_1_229)">
<path fill-rule="evenodd" clip-rule="evenodd" d="M1341.5 142.843C1342.34 142.843 1343.17 142.502 1343.77 141.906C1344.36 141.31 1344.7 140.485 1344.7 139.643C1344.7 138.8 1344.36 137.976 1343.77 137.379C1343.17 136.784 1342.34 136.443 1341.5 136.443C1340.66 136.443 1339.84 136.784 1339.24 137.379C1338.64 137.976 1338.3 138.8 1338.3 139.643C1338.3 140.485 1338.64 141.31 1339.24 141.906C1339.84 142.502 1340.66 142.843 1341.5 142.843Z" fill="#130D3A"/>
</g>
<path fill-rule="evenodd" clip-rule="evenodd" d="M1225 169C1225.79 169 1226.56 168.681 1227.12 168.121C1227.68 167.563 1228 166.79 1228 166C1228 165.211 1227.68 164.437 1227.12 163.879C1226.56 163.32 1225.79 163 1225 163C1224.21 163 1223.44 163.32 1222.88 163.879C1222.32 164.437 1222 165.211 1222 166C1222 166.79 1222.32 167.563 1222.88 168.121C1223.44 168.681 1224.21 169 1225 169Z" fill="#130D3A"/>
<path fill-rule="evenodd" clip-rule="evenodd" d="M1257.99 169H1258.01C1259.66 169 1261 167.656 1261 166C1261 164.344 1259.66 163 1258.01 163H1257.99C1256.34 163 1255 164.344 1255 166C1255 167.656 1256.34 169 1257.99 169Z" fill="#130D3A"/>
<path fill-rule="evenodd" clip-rule="evenodd" d="M1241.99 169H1242.01C1243.66 169 1245 167.656 1245 166C1245 164.344 1243.66 163 1242.01 163H1241.99C1240.34 163 1239 164.344 1239 166C1239 167.656 1240.34 169 1241.99 169Z" fill="#130D3A"/>
<path fill-rule="evenodd" clip-rule="evenodd" d="M1275 169C1275.79 169 1276.56 168.681 1277.12 168.121C1277.68 167.563 1278 166.79 1278 166C1278 165.211 1277.68 164.437 1277.12 163.879C1276.56 163.32 1275.79 163 1275 163C1274.21 163 1273.44 163.32 1272.88 163.879C1272.32 164.437 1272 165.211 1272 166C1272 166.79 1272.32 167.563 1272.88 168.121C1273.44 168.681 1274.21 169 1275 169Z" fill="#130D3A"/>
<path fill-rule="evenodd" clip-rule="evenodd" d="M1292 169C1292.79 169 1293.56 168.681 1294.12 168.121C1294.68 167.563 1295 166.79 1295 166C1295 165.211 1294.68 164.437 1294.12 163.879C1293.56 163.32 1292.79 163 1292 163C1291.21 163 1290.44 163.32 1289.88 163.879C1289.32 164.437 1289 165.211 1289 166C1289 166.79 1289.32 167.563 1289.88 168.121C1290.44 168.681 1291.21 169 1292 169Z" fill="#130D3A"/>
<path fill-rule="evenodd" clip-rule="evenodd" d="M1324.99 169H1325.01C1326.66 169 1328 167.656 1328 166C1328 164.344 1326.66 163 1325.01 163H1324.99C1323.34 163 1322 164.344 1322 166C1322 167.656 1323.34 169 1324.99 169Z" fill="#130D3A"/>
<path fill-rule="evenodd" clip-rule="evenodd" d="M1307.99 169H1308.01C1309.66 169 1311 167.656 1311 166C1311 164.344 1309.66 163 1308.01 163H1307.99C1306.34 163 1305 164.344 1305 166C1305 167.656 1306.34 169 1307.99 169Z" fill="#130D3A"/>
<mask id="mask3_1_229" style="mask-type:luminance" maskUnits="userSpaceOnUse" x="1338" y="163" width="7" height="7">
<path fill-rule="evenodd" clip-rule="evenodd" d="M1338.3 163.132H1344.7V169.532H1338.3V163.132Z" fill="white"/>
</mask>
<g mask="url(#mask3_1_229)">
<path fill-rule="evenodd" clip-rule="evenodd" d="M1341.5 169.532C1342.34 169.532 1343.17 169.192 1343.77 168.595C1344.36 168 1344.7 167.176 1344.7 166.332C1344.7 165.491 1344.36 164.665 1343.77 164.07C1343.17 163.473 1342.34 163.132 1341.5 163.132C1340.66 163.132 1339.84 163.473 1339.24 164.07C1338.64 164.665 1338.3 165.491 1338.3 166.332C1338.3 167.176 1338.64 168 1339.24 168.595C1339.84 169.192 1340.66 169.532 1341.5 169.532Z" fill="#130D3A"/>
</g>
<path fill-rule="evenodd" clip-rule="evenodd" d="M1225 182C1225.79 182 1226.56 181.681 1227.12 181.121C1227.68 180.563 1228 179.79 1228 179C1228 178.21 1227.68 177.437 1227.12 176.879C1226.56 176.32 1225.79 176 1225 176C1224.21 176 1223.44 176.32 1222.88 176.879C1222.32 177.437 1222 178.21 1222 179C1222 179.79 1222.32 180.563 1222.88 181.121C1223.44 181.681 1224.21 182 1225 182Z" fill="#130D3A"/>
<path fill-rule="evenodd" clip-rule="evenodd" d="M1257.99 182H1258.01C1259.66 182 1261 180.656 1261 179C1261 177.344 1259.66 176 1258.01 176H1257.99C1256.34 176 1255 177.344 1255 179C1255 180.656 1256.34 182 1257.99 182Z" fill="#130D3A"/>
<path fill-rule="evenodd" clip-rule="evenodd" d="M1241.99 182H1242.01C1243.66 182 1245 180.656 1245 179C1245 177.344 1243.66 176 1242.01 176H1241.99C1240.34 176 1239 177.344 1239 179C1239 180.656 1240.34 182 1241.99 182Z" fill="#130D3A"/>
<path fill-rule="evenodd" clip-rule="evenodd" d="M1275 182C1275.79 182 1276.56 181.681 1277.12 181.121C1277.68 180.563 1278 179.79 1278 179C1278 178.21 1277.68 177.437 1277.12 176.879C1276.56 176.32 1275.79 176 1275 176C1274.21 176 1273.44 176.32 1272.88 176.879C1272.32 177.437 1272 178.21 1272 179C1272 179.79 1272.32 180.563 1272.88 181.121C1273.44 181.681 1274.21 182 1275 182Z" fill="#130D3A"/>
<path fill-rule="evenodd" clip-rule="evenodd" d="M1292 182C1292.79 182 1293.56 181.681 1294.12 181.121C1294.68 180.563 1295 179.79 1295 179C1295 178.21 1294.68 177.437 1294.12 176.879C1293.56 176.32 1292.79 176 1292 176C1291.21 176 1290.44 176.32 1289.88 176.879C1289.32 177.437 1289 178.21 1289 179C1289 179.79 1289.32 180.563 1289.88 181.121C1290.44 181.681 1291.21 182 1292 182Z" fill="#130D3A"/>
<path fill-rule="evenodd" clip-rule="evenodd" d="M1324.99 182H1325.01C1326.66 182 1328 180.656 1328 179C1328 177.344 1326.66 176 1325.01 176H1324.99C1323.34 176 1322 177.344 1322 179C1322 180.656 1323.34 182 1324.99 182Z" fill="#130D3A"/>
<path fill-rule="evenodd" clip-rule="evenodd" d="M1307.99 182H1308.01C1309.66 182 1311 180.656 1311 179C1311 177.344 1309.66 176 1308.01 176H1307.99C1306.34 176 1305 177.344 1305 179C1305 180.656 1306.34 182 1307.99 182Z" fill="#130D3A"/>
<mask id="mask4_1_229" style="mask-type:luminance" maskUnits="userSpaceOnUse" x="1338" y="176" width="7" height="7">
<path fill-rule="evenodd" clip-rule="evenodd" d="M1338.3 176.477H1344.7V182.877H1338.3V176.477Z" fill="white"/>
</mask>
<g mask="url(#mask4_1_229)">
<path fill-rule="evenodd" clip-rule="evenodd" d="M1341.5 182.877C1342.34 182.877 1343.17 182.536 1343.77 181.939C1344.36 181.344 1344.7 180.52 1344.7 179.677C1344.7 178.834 1344.36 178.01 1343.77 177.414C1343.17 176.818 1342.34 176.477 1341.5 176.477C1340.66 176.477 1339.84 176.818 1339.24 177.414C1338.64 178.01 1338.3 178.834 1338.3 179.677C1338.3 180.52 1338.64 181.344 1339.24 181.939C1339.84 182.536 1340.66 182.877 1341.5 182.877Z" fill="#130D3A"/>
</g>
<path fill-rule="evenodd" clip-rule="evenodd" d="M1225 196C1225.79 196 1226.56 195.681 1227.12 195.121C1227.68 194.563 1228 193.79 1228 193C1228 192.211 1227.68 191.437 1227.12 190.879C1226.56 190.32 1225.79 190 1225 190C1224.21 190 1223.44 190.32 1222.88 190.879C1222.32 191.437 1222 192.211 1222 193C1222 193.79 1222.32 194.563 1222.88 195.121C1223.44 195.681 1224.21 196 1225 196Z" fill="#130D3A"/>
<path fill-rule="evenodd" clip-rule="evenodd" d="M1257.99 196H1258.01C1259.66 196 1261 194.656 1261 193C1261 191.344 1259.66 190 1258.01 190H1257.99C1256.34 190 1255 191.344 1255 193C1255 194.656 1256.34 196 1257.99 196Z" fill="#130D3A"/>
<path fill-rule="evenodd" clip-rule="evenodd" d="M1241.99 196H1242.01C1243.66 196 1245 194.656 1245 193C1245 191.344 1243.66 190 1242.01 190H1241.99C1240.34 190 1239 191.344 1239 193C1239 194.656 1240.34 196 1241.99 196Z" fill="#130D3A"/>
<path fill-rule="evenodd" clip-rule="evenodd" d="M1275 196C1275.79 196 1276.56 195.681 1277.12 195.121C1277.68 194.563 1278 193.79 1278 193C1278 192.211 1277.68 191.437 1277.12 190.879C1276.56 190.32 1275.79 190 1275 190C1274.21 190 1273.44 190.32 1272.88 190.879C1272.32 191.437 1272 192.211 1272 193C1272 193.79 1272.32 194.563 1272.88 195.121C1273.44 195.681 1274.21 196 1275 196Z" fill="#130D3A"/>
<path fill-rule="evenodd" clip-rule="evenodd" d="M1292 196C1292.79 196 1293.56 195.681 1294.12 195.121C1294.68 194.563 1295 193.79 1295 193C1295 192.211 1294.68 191.437 1294.12 190.879C1293.56 190.32 1292.79 190 1292 190C1291.21 190 1290.44 190.32 1289.88 190.879C1289.32 191.437 1289 192.211 1289 193C1289 193.79 1289.32 194.563 1289.88 195.121C1290.44 195.681 1291.21 196 1292 196Z" fill="#130D3A"/>
<path fill-rule="evenodd" clip-rule="evenodd" d="M1324.99 196H1325.01C1326.66 196 1328 194.656 1328 193C1328 191.344 1326.66 190 1325.01 190H1324.99C1323.34 190 1322 191.344 1322 193C1322 194.656 1323.34 196 1324.99 196Z" fill="#130D3A"/>
<path fill-rule="evenodd" clip-rule="evenodd" d="M1307.99 196H1308.01C1309.66 196 1311 194.656 1311 193C1311 191.344 1309.66 190 1308.01 190H1307.99C1306.34 190 1305 191.344 1305 193C1305 194.656 1306.34 196 1307.99 196Z" fill="#130D3A"/>
<mask id="mask5_1_229" style="mask-type:luminance" maskUnits="userSpaceOnUse" x="1338" y="189" width="7" height="7">
<path fill-rule="evenodd" clip-rule="evenodd" d="M1338.3 189.221H1344.7V195.621H1338.3V189.221Z" fill="white"/>
</mask>
<g mask="url(#mask5_1_229)">
<path fill-rule="evenodd" clip-rule="evenodd" d="M1341.5 195.621C1342.34 195.621 1343.17 195.281 1343.77 194.684C1344.36 194.089 1344.7 193.265 1344.7 192.421C1344.7 191.58 1344.36 190.754 1343.77 190.159C1343.17 189.562 1342.34 189.221 1341.5 189.221C1340.66 189.221 1339.84 189.562 1339.24 190.159C1338.64 190.754 1338.3 191.58 1338.3 192.421C1338.3 193.265 1338.64 194.089 1339.24 194.684C1339.84 195.281 1340.66 195.621 1341.5 195.621Z" fill="#130D3A"/>
</g>
<path fill-rule="evenodd" clip-rule="evenodd" d="M1225 209C1225.79 209 1226.56 208.681 1227.12 208.122C1227.68 207.563 1228 206.79 1228 206C1228 205.211 1227.68 204.437 1227.12 203.879C1226.56 203.32 1225.79 203 1225 203C1224.21 203 1223.44 203.32 1222.88 203.879C1222.32 204.437 1222 205.211 1222 206C1222 206.79 1222.32 207.563 1222.88 208.122C1223.44 208.681 1224.21 209 1225 209Z" fill="#130D3A"/>
<path fill-rule="evenodd" clip-rule="evenodd" d="M1257.99 209H1258.01C1259.66 209 1261 207.656 1261 206C1261 204.344 1259.66 203 1258.01 203H1257.99C1256.34 203 1255 204.344 1255 206C1255 207.656 1256.34 209 1257.99 209Z" fill="#130D3A"/>
<path fill-rule="evenodd" clip-rule="evenodd" d="M1241.99 209H1242.01C1243.66 209 1245 207.656 1245 206C1245 204.344 1243.66 203 1242.01 203H1241.99C1240.34 203 1239 204.344 1239 206C1239 207.656 1240.34 209 1241.99 209Z" fill="#130D3A"/>
<path fill-rule="evenodd" clip-rule="evenodd" d="M1275 209C1275.79 209 1276.56 208.681 1277.12 208.122C1277.68 207.563 1278 206.79 1278 206C1278 205.211 1277.68 204.437 1277.12 203.879C1276.56 203.32 1275.79 203 1275 203C1274.21 203 1273.44 203.32 1272.88 203.879C1272.32 204.437 1272 205.211 1272 206C1272 206.79 1272.32 207.563 1272.88 208.122C1273.44 208.681 1274.21 209 1275 209Z" fill="#130D3A"/>
<path fill-rule="evenodd" clip-rule="evenodd" d="M1292 209C1292.79 209 1293.56 208.681 1294.12 208.122C1294.68 207.563 1295 206.79 1295 206C1295 205.211 1294.68 204.437 1294.12 203.879C1293.56 203.32 1292.79 203 1292 203C1291.21 203 1290.44 203.32 1289.88 203.879C1289.32 204.437 1289 205.211 1289 206C1289 206.79 1289.32 207.563 1289.88 208.122C1290.44 208.681 1291.21 209 1292 209Z" fill="#130D3A"/>
<path fill-rule="evenodd" clip-rule="evenodd" d="M1324.99 209H1325.01C1326.66 209 1328 207.656 1328 206C1328 204.344 1326.66 203 1325.01 203H1324.99C1323.34 203 1322 204.344 1322 206C1322 207.656 1323.34 209 1324.99 209Z" fill="#130D3A"/>
<path fill-rule="evenodd" clip-rule="evenodd" d="M1307.99 209H1308.01C1309.66 209 1311 207.656 1311 206C1311 204.344 1309.66 203 1308.01 203H1307.99C1306.34 203 1305 204.344 1305 206C1305 207.656 1306.34 209 1307.99 209Z" fill="#130D3A"/>
<mask id="mask6_1_229" style="mask-type:luminance" maskUnits="userSpaceOnUse" x="1338" y="202" width="7" height="7">
<path fill-rule="evenodd" clip-rule="evenodd" d="M1338.3 202.566H1344.7V208.966H1338.3V202.566Z" fill="white"/>
</mask>
<g mask="url(#mask6_1_229)">
<path fill-rule="evenodd" clip-rule="evenodd" d="M1341.5 208.966C1342.34 208.966 1343.17 208.625 1343.77 208.03C1344.36 207.433 1344.7 206.609 1344.7 205.766C1344.7 204.924 1344.36 204.099 1343.77 203.504C1343.17 202.907 1342.34 202.566 1341.5 202.566C1340.66 202.566 1339.84 202.907 1339.24 203.504C1338.64 204.099 1338.3 204.924 1338.3 205.766C1338.3 206.609 1338.64 207.433 1339.24 208.03C1339.84 208.625 1340.66 208.966 1341.5 208.966Z" fill="#130D3A"/>
</g>
<path fill-rule="evenodd" clip-rule="evenodd" d="M1225 222C1225.79 222 1226.56 221.681 1227.12 221.121C1227.68 220.563 1228 219.79 1228 219C1228 218.211 1227.68 217.437 1227.12 216.879C1226.56 216.32 1225.79 216 1225 216C1224.21 216 1223.44 216.32 1222.88 216.879C1222.32 217.437 1222 218.211 1222 219C1222 219.79 1222.32 220.563 1222.88 221.121C1223.44 221.681 1224.21 222 1225 222Z" fill="#130D3A"/>
<path fill-rule="evenodd" clip-rule="evenodd" d="M1257.99 222H1258.01C1259.66 222 1261 220.656 1261 219C1261 217.344 1259.66 216 1258.01 216H1257.99C1256.34 216 1255 217.344 1255 219C1255 220.656 1256.34 222 1257.99 222Z" fill="#130D3A"/>
<path fill-rule="evenodd" clip-rule="evenodd" d="M1241.99 222H1242.01C1243.66 222 1245 220.656 1245 219C1245 217.344 1243.66 216 1242.01 216H1241.99C1240.34 216 1239 217.344 1239 219C1239 220.656 1240.34 222 1241.99 222Z" fill="#130D3A"/>
<path fill-rule="evenodd" clip-rule="evenodd" d="M1275 222C1275.79 222 1276.56 221.681 1277.12 221.121C1277.68 220.563 1278 219.79 1278 219C1278 218.211 1277.68 217.437 1277.12 216.879C1276.56 216.32 1275.79 216 1275 216C1274.21 216 1273.44 216.32 1272.88 216.879C1272.32 217.437 1272 218.211 1272 219C1272 219.79 1272.32 220.563 1272.88 221.121C1273.44 221.681 1274.21 222 1275 222Z" fill="#130D3A"/>
<path fill-rule="evenodd" clip-rule="evenodd" d="M1292 222C1292.79 222 1293.56 221.681 1294.12 221.121C1294.68 220.563 1295 219.79 1295 219C1295 218.211 1294.68 217.437 1294.12 216.879C1293.56 216.32 1292.79 216 1292 216C1291.21 216 1290.44 216.32 1289.88 216.879C1289.32 217.437 1289 218.211 1289 219C1289 219.79 1289.32 220.563 1289.88 221.121C1290.44 221.681 1291.21 222 1292 222Z" fill="#130D3A"/>
<path fill-rule="evenodd" clip-rule="evenodd" d="M1324.99 222H1325.01C1326.66 222 1328 220.656 1328 219C1328 217.344 1326.66 216 1325.01 216H1324.99C1323.34 216 1322 217.344 1322 219C1322 220.656 1323.34 222 1324.99 222Z" fill="#130D3A"/>
<path fill-rule="evenodd" clip-rule="evenodd" d="M1307.99 222H1308.01C1309.66 222 1311 220.656 1311 219C1311 217.344 1309.66 216 1308.01 216H1307.99C1306.34 216 1305 217.344 1305 219C1305 220.656 1306.34 222 1307.99 222Z" fill="#130D3A"/>
<mask id="mask7_1_229" style="mask-type:luminance" maskUnits="userSpaceOnUse" x="1338" y="215" width="7" height="8">
<path fill-rule="evenodd" clip-rule="evenodd" d="M1338.3 215.91H1344.7V222.31H1338.3V215.91Z" fill="white"/>
</mask>
<g mask="url(#mask7_1_229)">
<path fill-rule="evenodd" clip-rule="evenodd" d="M1341.5 222.31C1342.34 222.31 1343.17 221.97 1343.77 221.373C1344.36 220.778 1344.7 219.954 1344.7 219.11C1344.7 218.269 1344.36 217.443 1343.77 216.848C1343.17 216.251 1342.34 215.91 1341.5 215.91C1340.66 215.91 1339.84 216.251 1339.24 216.848C1338.64 217.443 1338.3 218.269 1338.3 219.11C1338.3 219.954 1338.64 220.778 1339.24 221.373C1339.84 221.97 1340.66 222.31 1341.5 222.31Z" fill="#130D3A"/>
</g>
<path fill-rule="evenodd" clip-rule="evenodd" d="M1225 235C1225.79 235 1226.56 234.681 1227.12 234.122C1227.68 233.563 1228 232.79 1228 232C1228 231.211 1227.68 230.437 1227.12 229.879C1226.56 229.32 1225.79 229 1225 229C1224.21 229 1223.44 229.32 1222.88 229.879C1222.32 230.437 1222 231.211 1222 232C1222 232.79 1222.32 233.563 1222.88 234.122C1223.44 234.681 1224.21 235 1225 235Z" fill="#130D3A"/>
<path fill-rule="evenodd" clip-rule="evenodd" d="M1257.99 235H1258.01C1259.66 235 1261 233.658 1261 232C1261 230.344 1259.66 229 1258.01 229H1257.99C1256.34 229 1255 230.344 1255 232C1255 233.658 1256.34 235 1257.99 235Z" fill="#130D3A"/>
<path fill-rule="evenodd" clip-rule="evenodd" d="M1241.99 235H1242.01C1243.66 235 1245 233.658 1245 232C1245 230.344 1243.66 229 1242.01 229H1241.99C1240.34 229 1239 230.344 1239 232C1239 233.658 1240.34 235 1241.99 235Z" fill="#130D3A"/>
<path fill-rule="evenodd" clip-rule="evenodd" d="M1275 235C1275.79 235 1276.56 234.681 1277.12 234.122C1277.68 233.563 1278 232.79 1278 232C1278 231.211 1277.68 230.437 1277.12 229.879C1276.56 229.32 1275.79 229 1275 229C1274.21 229 1273.44 229.32 1272.88 229.879C1272.32 230.437 1272 231.211 1272 232C1272 232.79 1272.32 233.563 1272.88 234.122C1273.44 234.681 1274.21 235 1275 235Z" fill="#130D3A"/>
<path fill-rule="evenodd" clip-rule="evenodd" d="M1292 235C1292.79 235 1293.56 234.681 1294.12 234.122C1294.68 233.563 1295 232.79 1295 232C1295 231.211 1294.68 230.437 1294.12 229.879C1293.56 229.32 1292.79 229 1292 229C1291.21 229 1290.44 229.32 1289.88 229.879C1289.32 230.437 1289 231.211 1289 232C1289 232.79 1289.32 233.563 1289.88 234.122C1290.44 234.681 1291.21 235 1292 235Z" fill="#130D3A"/>
<path fill-rule="evenodd" clip-rule="evenodd" d="M1324.99 235H1325.01C1326.66 235 1328 233.658 1328 232C1328 230.344 1326.66 229 1325.01 229H1324.99C1323.34 229 1322 230.344 1322 232C1322 233.658 1323.34 235 1324.99 235Z" fill="#130D3A"/>
<path fill-rule="evenodd" clip-rule="evenodd" d="M1307.99 235H1308.01C1309.66 235 1311 233.658 1311 232C1311 230.344 1309.66 229 1308.01 229H1307.99C1306.34 229 1305 230.344 1305 232C1305 233.658 1306.34 235 1307.99 235Z" fill="#130D3A"/>
<mask id="mask8_1_229" style="mask-type:luminance" maskUnits="userSpaceOnUse" x="1338" y="229" width="7" height="7">
<path fill-rule="evenodd" clip-rule="evenodd" d="M1338.3 229.255H1344.7V235.655H1338.3V229.255Z" fill="white"/>
</mask>
<g mask="url(#mask8_1_229)">
<path fill-rule="evenodd" clip-rule="evenodd" d="M1341.5 235.655C1342.34 235.655 1343.17 235.314 1343.77 234.719C1344.36 234.122 1344.7 233.298 1344.7 232.455C1344.7 231.613 1344.36 230.788 1343.77 230.193C1343.17 229.596 1342.34 229.255 1341.5 229.255C1340.66 229.255 1339.84 229.596 1339.24 230.193C1338.64 230.788 1338.3 231.613 1338.3 232.455C1338.3 233.298 1338.64 234.122 1339.24 234.719C1339.84 235.314 1340.66 235.655 1341.5 235.655Z" fill="#130D3A"/>
</g>
<mask id="mask9_1_229" style="mask-type:luminance" maskUnits="userSpaceOnUse" x="1222" y="242" width="7" height="6">
<path fill-rule="evenodd" clip-rule="evenodd" d="M1222 242H1228V248H1222V242Z" fill="white"/>
</mask>
<g mask="url(#mask9_1_229)">
<path fill-rule="evenodd" clip-rule="evenodd" d="M1225 248C1225.79 248 1226.56 247.681 1227.12 247.121C1227.68 246.563 1228 245.789 1228 245C1228 244.21 1227.68 243.437 1227.12 242.878C1226.56 242.32 1225.79 242 1225 242C1224.21 242 1223.44 242.32 1222.88 242.878C1222.32 243.437 1222 244.21 1222 245C1222 245.789 1222.32 246.563 1222.88 247.121C1223.44 247.681 1224.21 248 1225 248Z" fill="#130D3A"/>
</g>
<mask id="mask10_1_229" style="mask-type:luminance" maskUnits="userSpaceOnUse" x="1254" y="242" width="8" height="6">
<path fill-rule="evenodd" clip-rule="evenodd" d="M1254.99 242H1261.41V248H1254.99V242Z" fill="white"/>
</mask>
<g mask="url(#mask10_1_229)">
<path fill-rule="evenodd" clip-rule="evenodd" d="M1258.19 248H1258.21C1259.98 248 1261.41 246.656 1261.41 245C1261.41 243.343 1259.98 242 1258.21 242H1258.19C1256.43 242 1254.99 243.343 1254.99 245C1254.99 246.656 1256.43 248 1258.19 248Z" fill="#130D3A"/>
</g>
<mask id="mask11_1_229" style="mask-type:luminance" maskUnits="userSpaceOnUse" x="1238" y="242" width="7" height="6">
<path fill-rule="evenodd" clip-rule="evenodd" d="M1238.49 242H1244.91V248H1238.49V242Z" fill="white"/>
</mask>
<g mask="url(#mask11_1_229)">
<path fill-rule="evenodd" clip-rule="evenodd" d="M1241.69 248H1241.71C1243.47 248 1244.91 246.656 1244.91 245C1244.91 243.343 1243.47 242 1241.71 242H1241.69C1239.93 242 1238.49 243.343 1238.49 245C1238.49 246.656 1239.93 248 1241.69 248Z" fill="#130D3A"/>
</g>
<mask id="mask12_1_229" style="mask-type:luminance" maskUnits="userSpaceOnUse" x="1271" y="242" width="7" height="6">
<path fill-rule="evenodd" clip-rule="evenodd" d="M1271.5 242H1277.9V248H1271.5V242Z" fill="white"/>
</mask>
<g mask="url(#mask12_1_229)">
<path fill-rule="evenodd" clip-rule="evenodd" d="M1274.7 248C1275.54 248 1276.37 247.681 1276.96 247.121C1277.56 246.563 1277.9 245.789 1277.9 245C1277.9 244.21 1277.56 243.437 1276.96 242.878C1276.37 242.32 1275.54 242 1274.7 242C1273.86 242 1273.03 242.32 1272.44 242.878C1271.84 243.437 1271.5 244.21 1271.5 245C1271.5 245.789 1271.84 246.563 1272.44 247.121C1273.03 247.681 1273.86 248 1274.7 248Z" fill="#130D3A"/>
</g>
<mask id="mask13_1_229" style="mask-type:luminance" maskUnits="userSpaceOnUse" x="1288" y="242" width="7" height="6">
<path fill-rule="evenodd" clip-rule="evenodd" d="M1288.4 242H1294.8V248H1288.4V242Z" fill="white"/>
</mask>
<g mask="url(#mask13_1_229)">
<path fill-rule="evenodd" clip-rule="evenodd" d="M1291.6 248C1292.44 248 1293.27 247.681 1293.87 247.121C1294.46 246.563 1294.8 245.789 1294.8 245C1294.8 244.21 1294.46 243.437 1293.87 242.878C1293.27 242.32 1292.44 242 1291.6 242C1290.76 242 1289.93 242.32 1289.34 242.878C1288.74 243.437 1288.4 244.21 1288.4 245C1288.4 245.789 1288.74 246.563 1289.34 247.121C1289.93 247.681 1290.76 248 1291.6 248Z" fill="#130D3A"/>
</g>
<mask id="mask14_1_229" style="mask-type:luminance" maskUnits="userSpaceOnUse" x="1321" y="242" width="7" height="6">
<path fill-rule="evenodd" clip-rule="evenodd" d="M1321.39 242H1327.81V248H1321.39V242Z" fill="white"/>
</mask>
<g mask="url(#mask14_1_229)">
<path fill-rule="evenodd" clip-rule="evenodd" d="M1324.59 248H1324.61C1326.38 248 1327.81 246.656 1327.81 245C1327.81 243.343 1326.38 242 1324.61 242H1324.59C1322.83 242 1321.39 243.343 1321.39 245C1321.39 246.656 1322.83 248 1324.59 248Z" fill="#130D3A"/>
</g>
<mask id="mask15_1_229" style="mask-type:luminance" maskUnits="userSpaceOnUse" x="1304" y="242" width="8" height="6">
<path fill-rule="evenodd" clip-rule="evenodd" d="M1304.89 242H1311.31V248H1304.89V242Z" fill="white"/>
</mask>
<g mask="url(#mask15_1_229)">
<path fill-rule="evenodd" clip-rule="evenodd" d="M1308.09 248H1308.11C1309.88 248 1311.31 246.656 1311.31 245C1311.31 243.343 1309.88 242 1308.11 242H1308.09C1306.33 242 1304.89 243.343 1304.89 245C1304.89 246.656 1306.33 248 1308.09 248Z" fill="#130D3A"/>
</g>
<mask id="mask16_1_229" style="mask-type:luminance" maskUnits="userSpaceOnUse" x="1338" y="242" width="7" height="6">
<path fill-rule="evenodd" clip-rule="evenodd" d="M1338.3 242H1344.7V248H1338.3V242Z" fill="white"/>
</mask>
<g mask="url(#mask16_1_229)">
<path fill-rule="evenodd" clip-rule="evenodd" d="M1341.5 248C1342.34 248 1343.17 247.681 1343.77 247.121C1344.36 246.563 1344.7 245.789 1344.7 245C1344.7 244.21 1344.36 243.437 1343.77 242.878C1343.17 242.32 1342.34 242 1341.5 242C1340.66 242 1339.84 242.32 1339.24 242.878C1338.64 243.437 1338.3 244.21 1338.3 245C1338.3 245.789 1338.64 246.563 1339.24 247.121C1339.84 247.681 1340.66 248 1341.5 248Z" fill="#130D3A"/>
</g>
<circle opacity="0.0361096" cx="-304.5" cy="-202.5" r="575.5" fill="white"/>
<ellipse opacity="0.0458287" cx="-314.5" cy="-222.5" rx="822.5" ry="822" fill="white"/>
<ellipse opacity="0.050665" cx="-345.5" cy="-242" rx="1121.5" ry="1121" fill="white"/>
</g>
<defs>
<linearGradient id="paint0_linear_1_229" x1="804.757" y1="-416.034" x2="224.826" y2="812.159" gradientUnits="userSpaceOnUse">
<stop stop-color="#7B11F9"/>
<stop offset="0.394106" stop-color="#7922D8"/>
<stop offset="1" stop-color="#3636B2"/>
</linearGradient>
</defs>
</svg>
