<svg width="215" height="72" viewBox="0 0 215 72" fill="none" xmlns="http://www.w3.org/2000/svg">
<path d="M58.1672 47.1489C55.9382 51.2922 52.0606 57.1922 47.9373 59.4789C43.8139 61.7657 39.1121 62.8292 34.3831 62.5448C29.654 62.2603 25.0936 60.6397 21.2366 57.873C17.3795 55.1062 14.3857 51.308 12.606 46.9235C10.8263 42.539 10.3345 37.75 11.1883 33.1179C12.0421 28.4858 14.206 24.2026 17.4265 20.7704C20.647 17.3382 24.7905 14.8992 29.3712 13.7394C33.952 12.5797 37.4115 14.2054 41.9211 15.6804C37.9028 14.3661 34.1411 15.3253 30.0593 16.3587C25.9776 17.3922 22.2854 19.5655 19.4158 22.6238C16.5462 25.6821 14.6179 29.4987 13.8571 33.6262C13.0964 37.7537 13.5346 42.021 15.1204 45.9279C16.7062 49.8347 19.3739 53.2192 22.8108 55.6846C26.2477 58.1499 30.3113 59.5939 34.5252 59.8474C38.7391 60.1008 42.9287 59.1532 46.6029 57.1155C50.277 55.0779 56.181 50.8409 58.1672 47.1489Z" fill="#D9D9D9"/>
<path d="M7.34641 44.2579C6.38108 40.2938 4.62969 33.2211 5.35287 29.2011C6.07605 25.1812 7.63172 21.351 9.92156 17.9527C12.2114 14.5543 15.1856 11.6617 18.6563 9.4576C22.127 7.25349 26.0186 5.78582 30.0852 5.14734C34.1519 4.50886 38.3052 4.71345 42.2826 5.74818C46.2601 6.78292 49.9752 8.62529 53.1932 11.1589C56.4112 13.6925 59.0621 16.8622 60.9784 20.4677C62.8947 24.0733 62.0673 30.2999 62.359 34.3699C62.099 30.7433 59.8174 25.1866 58.1098 21.9738C56.4023 18.761 54.0401 15.9366 51.1727 13.679C48.3052 11.4214 44.9948 9.77976 41.4507 8.85775C37.9065 7.93573 34.2057 7.75343 30.582 8.32236C26.9584 8.89129 23.4907 10.1991 20.3981 12.1631C17.3055 14.1271 14.6553 16.7046 12.6149 19.7327C10.5745 22.7609 9.1883 26.1738 8.5439 29.7558C7.8995 33.3379 6.48624 40.7256 7.34641 44.2579Z" fill="#F74D4D"/>
<rect width="5" height="11" transform="translate(24.8204 35)" fill="white"/>
<rect width="6" height="17" transform="translate(32.8204 29)" fill="white"/>
<rect width="5" height="23" transform="translate(40.8204 23)" fill="white"/>
<path d="M38.6903 38.8526L39.0838 39.772L38.6903 38.8526ZM52.5497 30.0585C52.582 29.5072 52.1612 29.0341 51.6099 29.0018L42.6252 28.476C42.0739 28.4437 41.6008 28.8645 41.5685 29.4159C41.5363 29.9672 41.9571 30.4403 42.5084 30.4726L50.4947 30.94L50.0274 38.9263C49.9951 39.4776 50.4159 39.9507 50.9672 39.983C51.5186 40.0153 51.9917 39.5945 52.024 39.0431L52.5497 30.0585ZM21.8204 42.0261C21.8704 43.0249 21.8706 43.0249 21.8707 43.0249C21.8709 43.0249 21.8711 43.0248 21.8713 43.0248C21.8718 43.0248 21.8724 43.0248 21.8732 43.0247C21.8748 43.0247 21.877 43.0245 21.8799 43.0244C21.8857 43.0241 21.894 43.0237 21.9048 43.0231C21.9264 43.0219 21.958 43.0202 21.9992 43.0178C22.0816 43.0131 22.2023 43.0059 22.3574 42.9958C22.6676 42.9757 23.1159 42.944 23.6725 42.8978C24.7852 42.8053 26.3335 42.6542 28.0776 42.4196C31.5397 41.9539 35.8707 41.1472 39.0838 39.772L38.6903 38.8526L38.2968 37.9333C35.347 39.1958 31.243 39.9758 27.811 40.4374C26.1079 40.6665 24.5943 40.8142 23.5069 40.9046C22.9634 40.9498 22.5271 40.9806 22.2277 41.0001C22.078 41.0098 21.9626 41.0167 21.8851 41.0211C21.8464 41.0233 21.8172 41.0249 21.7979 41.0259C21.7883 41.0265 21.7811 41.0268 21.7765 41.0271C21.7742 41.0272 21.7726 41.0273 21.7716 41.0273C21.7711 41.0273 21.7707 41.0274 21.7705 41.0274C21.7704 41.0274 21.7704 41.0274 21.7704 41.0274C21.7704 41.0274 21.7705 41.0274 21.8204 42.0261ZM38.6903 38.8526L39.0838 39.772C42.006 38.5213 45.3027 36.2443 47.8285 34.3225C49.1008 33.3545 50.1952 32.4628 50.9719 31.8128C51.3605 31.4877 51.67 31.2227 51.8831 31.0383C51.9896 30.9461 52.0721 30.874 52.1283 30.8247C52.1564 30.8 52.178 30.781 52.1927 30.768C52.2 30.7615 52.2057 30.7565 52.2096 30.753C52.2115 30.7513 52.2131 30.75 52.2141 30.749C52.2147 30.7485 52.2151 30.7481 52.2154 30.7479C52.2156 30.7477 52.2157 30.7476 52.2158 30.7475C52.2159 30.7474 52.216 30.7473 51.5515 30.0001C50.8869 29.2529 50.8869 29.2528 50.8869 29.2528C50.8869 29.2529 50.8869 29.2529 50.8868 29.2529C50.8867 29.253 50.8865 29.2532 50.8861 29.2535C50.8854 29.2542 50.8843 29.2551 50.8828 29.2565C50.8796 29.2593 50.8748 29.2636 50.8683 29.2694C50.8552 29.2809 50.8353 29.2985 50.8089 29.3216C50.7561 29.368 50.6772 29.4369 50.5744 29.5259C50.3688 29.7038 50.0677 29.9616 49.6884 30.279C48.9295 30.9141 47.8597 31.7857 46.6174 32.7308C44.114 34.6356 40.9801 36.7848 38.2968 37.9333L38.6903 38.8526Z" fill="#F74D4D"/>
<path d="M84.7964 43.7422C84.6204 43.7422 84.4764 43.6862 84.3644 43.5742C84.2524 43.4622 84.1964 43.3182 84.1964 43.1422V30.7102H79.9244C79.7484 30.7102 79.6044 30.6542 79.4924 30.5422C79.3804 30.4142 79.3244 30.2702 79.3244 30.1102V27.5422C79.3244 27.3662 79.3804 27.2222 79.4924 27.1102C79.6044 26.9982 79.7484 26.9422 79.9244 26.9422H92.8364C93.0124 26.9422 93.1564 26.9982 93.2684 27.1102C93.3804 27.2222 93.4364 27.3662 93.4364 27.5422V30.1102C93.4364 30.2702 93.3804 30.4142 93.2684 30.5422C93.1564 30.6542 93.0124 30.7102 92.8364 30.7102H88.5644V43.1422C88.5644 43.3182 88.5084 43.4622 88.3964 43.5742C88.2844 43.6862 88.1404 43.7422 87.9644 43.7422H84.7964ZM94.578 43.7422C94.402 43.7422 94.258 43.6862 94.146 43.5742C94.034 43.4622 93.978 43.3182 93.978 43.1422V31.8622C93.978 31.7022 94.034 31.5662 94.146 31.4542C94.258 31.3262 94.402 31.2622 94.578 31.2622H97.338C97.514 31.2622 97.658 31.3262 97.77 31.4542C97.882 31.5662 97.938 31.7022 97.938 31.8622V32.8222C98.37 32.3262 98.882 31.9422 99.474 31.6702C100.082 31.3982 100.762 31.2622 101.514 31.2622H102.57C102.73 31.2622 102.866 31.3182 102.978 31.4302C103.106 31.5422 103.17 31.6862 103.17 31.8622V34.3342C103.17 34.4942 103.106 34.6382 102.978 34.7662C102.866 34.8782 102.73 34.9342 102.57 34.9342H100.242C99.586 34.9342 99.074 35.1182 98.706 35.4862C98.354 35.8382 98.178 36.3422 98.178 36.9982V43.1422C98.178 43.3182 98.114 43.4622 97.986 43.5742C97.874 43.6862 97.73 43.7422 97.554 43.7422H94.578ZM108.276 43.9822C107.412 43.9822 106.636 43.8222 105.948 43.5022C105.276 43.1662 104.74 42.7182 104.34 42.1582C103.94 41.5982 103.74 40.9662 103.74 40.2622C103.74 39.1262 104.204 38.2302 105.132 37.5742C106.06 36.9022 107.292 36.4462 108.828 36.2062L111.828 35.7502V35.4142C111.828 34.8382 111.708 34.3982 111.468 34.0942C111.228 33.7902 110.788 33.6382 110.148 33.6382C109.7 33.6382 109.332 33.7262 109.044 33.9022C108.772 34.0782 108.556 34.3182 108.396 34.6222C108.252 34.8302 108.052 34.9342 107.796 34.9342H105.108C104.932 34.9342 104.796 34.8862 104.7 34.7902C104.604 34.6782 104.564 34.5502 104.58 34.4062C104.58 34.1182 104.684 33.7902 104.892 33.4222C105.116 33.0382 105.452 32.6622 105.9 32.2942C106.348 31.9262 106.924 31.6222 107.628 31.3822C108.332 31.1422 109.18 31.0222 110.172 31.0222C111.212 31.0222 112.1 31.1422 112.836 31.3822C113.572 31.6222 114.164 31.9582 114.612 32.3902C115.076 32.8222 115.42 33.3342 115.644 33.9262C115.868 34.5022 115.98 35.1422 115.98 35.8462V43.1422C115.98 43.3182 115.916 43.4622 115.788 43.5742C115.676 43.6862 115.54 43.7422 115.38 43.7422H112.596C112.42 43.7422 112.276 43.6862 112.164 43.5742C112.052 43.4622 111.996 43.3182 111.996 43.1422V42.3022C111.788 42.6062 111.508 42.8862 111.156 43.1422C110.804 43.3982 110.388 43.5982 109.908 43.7422C109.444 43.9022 108.9 43.9822 108.276 43.9822ZM109.404 41.2462C109.868 41.2462 110.284 41.1502 110.652 40.9582C111.036 40.7502 111.332 40.4382 111.54 40.0222C111.764 39.5902 111.876 39.0542 111.876 38.4142V38.0782L109.836 38.4382C109.084 38.5662 108.532 38.7662 108.18 39.0382C107.844 39.2942 107.676 39.5982 107.676 39.9502C107.676 40.2222 107.756 40.4542 107.916 40.6462C108.076 40.8382 108.284 40.9902 108.54 41.1022C108.796 41.1982 109.084 41.2462 109.404 41.2462ZM123.211 43.9822C122.443 43.9822 121.747 43.8622 121.123 43.6222C120.515 43.3662 119.987 42.9982 119.539 42.5182C119.107 42.0222 118.771 41.4302 118.531 40.7422C118.291 40.0382 118.155 39.2382 118.123 38.3422C118.107 38.0222 118.099 37.7422 118.099 37.5022C118.099 37.2462 118.107 36.9662 118.123 36.6622C118.155 35.7982 118.291 35.0222 118.531 34.3342C118.771 33.6462 119.107 33.0542 119.539 32.5582C119.971 32.0622 120.499 31.6862 121.123 31.4302C121.747 31.1582 122.443 31.0222 123.211 31.0222C124.011 31.0222 124.699 31.1582 125.275 31.4302C125.851 31.6862 126.339 32.0222 126.739 32.4382V27.3022C126.739 27.1262 126.795 26.9822 126.907 26.8702C127.019 26.7582 127.163 26.7022 127.339 26.7022H130.267C130.427 26.7022 130.563 26.7582 130.675 26.8702C130.803 26.9822 130.867 27.1262 130.867 27.3022V43.1422C130.867 43.3182 130.803 43.4622 130.675 43.5742C130.563 43.6862 130.427 43.7422 130.267 43.7422H127.555C127.379 43.7422 127.235 43.6862 127.123 43.5742C127.011 43.4622 126.955 43.3182 126.955 43.1422V42.3742C126.571 42.8382 126.075 43.2222 125.467 43.5262C124.859 43.8302 124.107 43.9822 123.211 43.9822ZM124.507 40.7662C125.051 40.7662 125.475 40.6542 125.779 40.4302C126.099 40.1902 126.331 39.8862 126.475 39.5182C126.635 39.1502 126.723 38.7502 126.739 38.3182C126.755 37.9982 126.763 37.6942 126.763 37.4062C126.763 37.1182 126.755 36.8222 126.739 36.5182C126.723 36.1182 126.635 35.7502 126.475 35.4142C126.315 35.0622 126.075 34.7822 125.755 34.5742C125.435 34.3502 125.019 34.2382 124.507 34.2382C123.979 34.2382 123.555 34.3502 123.235 34.5742C122.931 34.7982 122.715 35.1022 122.587 35.4862C122.459 35.8702 122.379 36.2942 122.347 36.7582C122.299 37.2542 122.299 37.7502 122.347 38.2462C122.379 38.7102 122.459 39.1342 122.587 39.5182C122.715 39.9022 122.931 40.2062 123.235 40.4302C123.555 40.6542 123.979 40.7662 124.507 40.7662ZM139.322 43.9822C137.434 43.9822 135.93 43.4702 134.81 42.4462C133.69 41.4222 133.106 39.9022 133.058 37.8862C133.058 37.7742 133.058 37.6302 133.058 37.4542C133.058 37.2782 133.058 37.1422 133.058 37.0462C133.106 35.7822 133.386 34.7022 133.898 33.8062C134.426 32.8942 135.146 32.2062 136.058 31.7422C136.986 31.2622 138.066 31.0222 139.298 31.0222C140.706 31.0222 141.866 31.3022 142.778 31.8622C143.706 32.4222 144.402 33.1822 144.866 34.1422C145.33 35.1022 145.562 36.1982 145.562 37.4302V38.0062C145.562 38.1822 145.498 38.3262 145.37 38.4382C145.258 38.5502 145.122 38.6062 144.962 38.6062H137.282C137.282 38.6222 137.282 38.6462 137.282 38.6782C137.282 38.7102 137.282 38.7422 137.282 38.7742C137.298 39.2382 137.378 39.6622 137.522 40.0462C137.666 40.4302 137.89 40.7342 138.194 40.9582C138.498 41.1822 138.866 41.2942 139.298 41.2942C139.618 41.2942 139.882 41.2462 140.09 41.1502C140.314 41.0382 140.498 40.9182 140.642 40.7902C140.786 40.6462 140.898 40.5262 140.978 40.4302C141.122 40.2702 141.234 40.1742 141.314 40.1422C141.41 40.0942 141.554 40.0702 141.746 40.0702H144.722C144.882 40.0702 145.01 40.1182 145.106 40.2142C145.218 40.2942 145.266 40.4142 145.25 40.5742C145.234 40.8462 145.098 41.1742 144.842 41.5582C144.586 41.9422 144.21 42.3262 143.714 42.7102C143.234 43.0782 142.626 43.3822 141.89 43.6222C141.154 43.8622 140.298 43.9822 139.322 43.9822ZM137.282 36.2302H141.338V36.1822C141.338 35.6702 141.258 35.2222 141.098 34.8382C140.954 34.4542 140.722 34.1582 140.402 33.9502C140.098 33.7422 139.73 33.6382 139.298 33.6382C138.866 33.6382 138.498 33.7422 138.194 33.9502C137.906 34.1582 137.682 34.4542 137.522 34.8382C137.362 35.2222 137.282 35.6702 137.282 36.1822V36.2302ZM148.279 43.7422C148.103 43.7422 147.959 43.6862 147.847 43.5742C147.735 43.4622 147.679 43.3182 147.679 43.1422V31.8622C147.679 31.7022 147.735 31.5662 147.847 31.4542C147.959 31.3262 148.103 31.2622 148.279 31.2622H151.039C151.215 31.2622 151.359 31.3262 151.471 31.4542C151.583 31.5662 151.639 31.7022 151.639 31.8622V32.8222C152.071 32.3262 152.583 31.9422 153.175 31.6702C153.783 31.3982 154.463 31.2622 155.215 31.2622H156.271C156.431 31.2622 156.567 31.3182 156.679 31.4302C156.807 31.5422 156.871 31.6862 156.871 31.8622V34.3342C156.871 34.4942 156.807 34.6382 156.679 34.7662C156.567 34.8782 156.431 34.9342 156.271 34.9342H153.943C153.287 34.9342 152.775 35.1182 152.407 35.4862C152.055 35.8382 151.879 36.3422 151.879 36.9982V43.1422C151.879 43.3182 151.815 43.4622 151.687 43.5742C151.575 43.6862 151.431 43.7422 151.255 43.7422H148.279ZM163.58 43.9822C162.54 43.9822 161.652 43.8702 160.916 43.6462C160.196 43.4062 159.604 43.1182 159.14 42.7822C158.692 42.4462 158.356 42.1022 158.132 41.7502C157.908 41.3822 157.788 41.0702 157.772 40.8142C157.756 40.6382 157.812 40.4942 157.94 40.3822C158.068 40.2542 158.204 40.1902 158.348 40.1902H161.084C161.132 40.1902 161.172 40.1982 161.204 40.2142C161.236 40.2302 161.284 40.2622 161.348 40.3102C161.556 40.4222 161.764 40.5662 161.972 40.7422C162.18 40.9022 162.42 41.0462 162.692 41.1742C162.964 41.3022 163.292 41.3662 163.676 41.3662C164.124 41.3662 164.5 41.2782 164.804 41.1022C165.108 40.9262 165.26 40.6622 165.26 40.3102C165.26 40.0542 165.188 39.8462 165.044 39.6862C164.9 39.5102 164.604 39.3422 164.156 39.1822C163.724 39.0222 163.068 38.8622 162.188 38.7022C161.356 38.5102 160.628 38.2622 160.004 37.9582C159.38 37.6382 158.9 37.2302 158.564 36.7342C158.228 36.2222 158.06 35.6062 158.06 34.8862C158.06 34.2462 158.268 33.6302 158.684 33.0382C159.1 32.4462 159.708 31.9662 160.508 31.5982C161.308 31.2142 162.292 31.0222 163.46 31.0222C164.388 31.0222 165.188 31.1342 165.86 31.3582C166.548 31.5662 167.124 31.8382 167.588 32.1742C168.068 32.5102 168.428 32.8542 168.668 33.2062C168.908 33.5582 169.036 33.8782 169.052 34.1662C169.068 34.3262 169.02 34.4702 168.908 34.5982C168.796 34.7102 168.668 34.7662 168.524 34.7662H166.028C165.964 34.7662 165.9 34.7582 165.836 34.7422C165.772 34.7102 165.716 34.6782 165.668 34.6462C165.476 34.5502 165.284 34.4222 165.092 34.2622C164.9 34.1022 164.676 33.9582 164.42 33.8302C164.164 33.7022 163.844 33.6382 163.46 33.6382C163.028 33.6382 162.692 33.7342 162.452 33.9262C162.212 34.1182 162.092 34.3662 162.092 34.6702C162.092 34.8782 162.156 35.0702 162.284 35.2462C162.428 35.4222 162.708 35.5822 163.124 35.7262C163.556 35.8702 164.22 36.0302 165.116 36.2062C166.22 36.3822 167.1 36.6702 167.756 37.0702C168.412 37.4542 168.876 37.9102 169.148 38.4382C169.42 38.9502 169.556 39.4942 169.556 40.0702C169.556 40.8382 169.324 41.5182 168.86 42.1102C168.412 42.7022 167.74 43.1662 166.844 43.5022C165.948 43.8222 164.86 43.9822 163.58 43.9822ZM172.44 43.7422C172.264 43.7422 172.12 43.6862 172.008 43.5742C171.896 43.4622 171.84 43.3182 171.84 43.1422V27.5422C171.84 27.3662 171.896 27.2222 172.008 27.1102C172.12 26.9982 172.264 26.9422 172.44 26.9422H179.16C180.488 26.9422 181.64 27.1502 182.616 27.5662C183.608 27.9662 184.376 28.5742 184.92 29.3902C185.48 30.2062 185.76 31.2382 185.76 32.4862C185.76 33.7182 185.48 34.7342 184.92 35.5342C184.376 36.3342 183.608 36.9262 182.616 37.3102C181.64 37.6942 180.488 37.8862 179.16 37.8862H176.304V43.1422C176.304 43.3182 176.24 43.4622 176.112 43.5742C176 43.6862 175.856 43.7422 175.68 43.7422H172.44ZM176.232 34.5742H179.04C179.728 34.5742 180.272 34.3982 180.672 34.0462C181.088 33.6942 181.296 33.1582 181.296 32.4382C181.296 31.8302 181.12 31.3182 180.768 30.9022C180.416 30.4862 179.84 30.2782 179.04 30.2782H176.232V34.5742ZM191.125 43.9822C190.261 43.9822 189.485 43.8222 188.797 43.5022C188.125 43.1662 187.589 42.7182 187.189 42.1582C186.789 41.5982 186.589 40.9662 186.589 40.2622C186.589 39.1262 187.053 38.2302 187.981 37.5742C188.909 36.9022 190.141 36.4462 191.677 36.2062L194.677 35.7502V35.4142C194.677 34.8382 194.557 34.3982 194.317 34.0942C194.077 33.7902 193.637 33.6382 192.997 33.6382C192.549 33.6382 192.181 33.7262 191.893 33.9022C191.621 34.0782 191.405 34.3182 191.245 34.6222C191.101 34.8302 190.901 34.9342 190.645 34.9342H187.957C187.781 34.9342 187.645 34.8862 187.549 34.7902C187.453 34.6782 187.413 34.5502 187.429 34.4062C187.429 34.1182 187.533 33.7902 187.741 33.4222C187.965 33.0382 188.301 32.6622 188.749 32.2942C189.197 31.9262 189.773 31.6222 190.477 31.3822C191.181 31.1422 192.029 31.0222 193.021 31.0222C194.061 31.0222 194.949 31.1422 195.685 31.3822C196.421 31.6222 197.013 31.9582 197.461 32.3902C197.925 32.8222 198.269 33.3342 198.493 33.9262C198.717 34.5022 198.829 35.1422 198.829 35.8462V43.1422C198.829 43.3182 198.765 43.4622 198.637 43.5742C198.525 43.6862 198.389 43.7422 198.229 43.7422H195.445C195.269 43.7422 195.125 43.6862 195.013 43.5742C194.901 43.4622 194.845 43.3182 194.845 43.1422V42.3022C194.637 42.6062 194.357 42.8862 194.005 43.1422C193.653 43.3982 193.237 43.5982 192.757 43.7422C192.293 43.9022 191.749 43.9822 191.125 43.9822ZM192.253 41.2462C192.717 41.2462 193.133 41.1502 193.501 40.9582C193.885 40.7502 194.181 40.4382 194.389 40.0222C194.613 39.5902 194.725 39.0542 194.725 38.4142V38.0782L192.685 38.4382C191.933 38.5662 191.381 38.7662 191.029 39.0382C190.693 39.2942 190.525 39.5982 190.525 39.9502C190.525 40.2222 190.605 40.4542 190.765 40.6462C190.925 40.8382 191.133 40.9902 191.389 41.1022C191.645 41.1982 191.933 41.2462 192.253 41.2462ZM203.333 48.3022C203.189 48.3022 203.069 48.2542 202.973 48.1582C202.877 48.0622 202.829 47.9422 202.829 47.7982C202.829 47.7662 202.829 47.7182 202.829 47.6542C202.845 47.6062 202.869 47.5502 202.901 47.4862L204.773 42.9742L200.165 32.0782C200.117 31.9662 200.093 31.8702 200.093 31.7902C200.125 31.6462 200.189 31.5262 200.285 31.4302C200.381 31.3182 200.501 31.2622 200.645 31.2622H203.381C203.589 31.2622 203.741 31.3182 203.837 31.4302C203.949 31.5262 204.021 31.6382 204.053 31.7662L206.813 38.7502L209.621 31.7662C209.685 31.6382 209.765 31.5262 209.861 31.4302C209.973 31.3182 210.133 31.2622 210.341 31.2622H213.029C213.173 31.2622 213.293 31.3182 213.389 31.4302C213.501 31.5262 213.557 31.6382 213.557 31.7662C213.557 31.8462 213.533 31.9502 213.485 32.0782L206.693 47.7982C206.645 47.9262 206.565 48.0382 206.453 48.1342C206.341 48.2462 206.181 48.3022 205.973 48.3022H203.333Z" fill="white"/>
</svg>
