<svg width="37" height="36" viewBox="0 0 37 36" fill="none" xmlns="http://www.w3.org/2000/svg">
<path d="M34.8623 23.0174C32.9207 20.9255 29.5641 21.2154 28.0003 23.5885C26.4334 21.2114 23.0727 20.9279 21.1335 23.0222C19.4942 24.793 19.6815 27.5764 21.3819 29.2891L27.4255 35.3752C27.7406 35.6923 28.2568 35.6923 28.572 35.3752L34.6171 29.2891C36.3207 27.5748 36.5057 24.7874 34.8623 23.0174Z" fill="#68D585"/>
<path opacity="0.4" d="M14.1667 21.613H5.83333C5.3725 21.613 5 21.165 5 20.613C5 20.061 5.3725 19.613 5.83333 19.613H14.1667C14.6275 19.613 15 20.061 15 20.613C15 21.165 14.6275 21.613 14.1667 21.613Z" fill="#68D585"/>
<path opacity="0.4" fill-rule="evenodd" clip-rule="evenodd" d="M3.21739 0.613037H33.7826C35.557 0.613037 37 2.09045 37 3.90715V18.7307H35.3913V14.613H1.6087V25.3189C1.6087 26.2273 2.3302 26.966 3.21739 26.966H16.087V28.613H3.21739C1.443 28.613 0 27.1356 0 25.3189V3.90715C0 2.09045 1.443 0.613037 3.21739 0.613037ZM1.6087 8.0248H35.3913V3.90715C35.3913 2.9988 34.6698 2.2601 33.7826 2.2601H3.21739C2.3302 2.2601 1.6087 2.9988 1.6087 3.90715V8.0248Z" fill="#68D585"/>
</svg>
