<svg width="41" height="37" viewBox="0 0 41 37" fill="none" xmlns="http://www.w3.org/2000/svg">
<path opacity="0.4" d="M38.7057 25.622L31.8219 23.0372C31.5186 22.924 31.3007 22.647 31.2555 22.3172L30.9026 19.7649C33.3664 18.3284 34.8931 15.6357 34.9004 12.7136V7.37847C34.8977 4.93515 33.13 2.87813 30.7815 2.58517L30.0207 1.01381C29.656 0.280181 28.8246 -0.0649838 28.0698 0.203826L23.3757 1.93629C21.9221 2.52796 20.7237 3.64082 20 5.07092C22.2686 7.02024 23.5782 9.91223 23.5726 12.9601V14.5135C23.7773 16.8625 24.5243 19.1265 25.751 21.1158C26.1673 21.7605 26.2953 22.5589 26.1024 23.3078C25.9095 24.0567 25.4143 24.6839 24.7429 25.0298C24.463 25.1672 24.1738 25.2833 23.8776 25.3772L25.0783 25.7489C27.2947 26.4267 28.8115 28.5346 28.8008 30.922V35.2131C28.7979 35.5203 28.7437 35.8248 28.6405 36.113H40.1286C40.6099 36.113 41 35.7101 41 35.2131V29.0032C40.9967 27.491 40.0808 26.1413 38.7057 25.622Z" fill="#68D585"/>
<path d="M26.1 36.113H0.900033C0.402979 36.113 3.58771e-05 35.7037 3.58771e-05 35.1988V30.8394C-0.0070587 29.2218 1.03869 27.7939 2.56593 27.3359L8.53921 25.5156C8.87414 25.4125 9.11986 25.1215 9.16921 24.7695L9.31501 23.7409C5.45852 24.3361 3.29583 23.2664 3.19503 23.2171C2.96387 23.0998 2.79346 22.8873 2.72716 22.6337C2.66086 22.38 2.70506 22.1096 2.84853 21.8913C4.31741 19.573 5.19434 16.9193 5.40002 14.1702V12.3416C5.40002 10.064 6.3293 7.88825 7.96665 6.33233C9.60401 4.77641 11.8029 3.97952 14.04 4.13136C18.3563 4.49691 21.6584 8.19256 21.6 12.5922V14.1702C21.8049 16.9191 22.6808 19.5728 24.1488 21.8913C24.2922 22.1096 24.3364 22.38 24.2701 22.6337C24.2038 22.8873 24.0334 23.0998 23.8023 23.2171C23.7033 23.2664 21.5406 24.3352 17.6823 23.7409L17.8281 24.7695C17.8774 25.1215 18.1232 25.4125 18.4581 25.5156L24.4341 27.3359C25.9613 27.7939 27.0071 29.2218 27 30.8394V35.1988C27 35.7037 26.597 36.113 26.1 36.113Z" fill="#68D585"/>
</svg>
