<svg width="47" height="33" viewBox="0 0 47 33" fill="none" xmlns="http://www.w3.org/2000/svg">
<path opacity="0.4" d="M46.8244 20.54L40.0302 10.54C39.8488 10.2726 39.5521 10.1132 39.2353 10.113H35.353V18.113C35.353 20.8745 33.1802 23.113 30.5 23.113H14V29.113C14 30.7699 15.3036 32.113 16.9118 32.113H39.2353C39.5524 32.1132 39.8495 31.9538 40.0312 31.686L46.8253 21.686C47.0586 21.3417 47.0582 20.8839 46.8244 20.54Z" fill="#68D585"/>
<path d="M30.0882 22.113H7.76429C7.44775 22.1131 7.15107 21.9541 6.96937 21.687L0.17514 11.687C-0.0583801 11.3429 -0.0583801 10.8852 0.17514 10.541L6.96937 0.541037C7.15064 0.273223 7.44739 0.113447 7.76429 0.113037H30.0882C31.6963 0.113037 33 1.45618 33 3.11304V19.113C33 20.7699 31.6963 22.113 30.0882 22.113Z" fill="#68D585"/>
</svg>
